<?xml version="1.0" encoding="UTF-8"?>
<svg id="Layer_1" xmlns="http://www.w3.org/2000/svg" version="1.1" viewBox="0 0 100.61 30">
  <!-- Generator: Adobe Illustrator 30.0.0, SVG Export Plug-In . SVG Version: 2.1.1 Build 123)  -->
  <defs>
    <style>
      .st0 {
        fill: #e42210;
      }

      .st1 {
        fill: #1c1c1a;
      }

      .st2 {
        fill: #485359;
      }
    </style>
  </defs>
  <g>
    <path class="st1" d="M27.79,15.09s0,.02,0,.03"/>
    <path class="st0" d="M14.99,25.67c-5.89,0-10.67-4.78-10.67-10.67,0-4.47,2.75-8.29,6.64-9.88V.57C4.64,2.33,0,8.11,0,15c0,8.28,6.71,15,14.99,15,7.6,0,13.86-5.66,14.85-12.99h-4.37c-.94,4.93-5.27,8.66-10.48,8.66M17.84.27c-.92-.18-1.88-.27-2.85-.27-.71,0-1.42.05-2.1.15,0,0,0,0,0,0v4.39s0,0,0,0h0s0,10.55,0,10.55h4.14V4.52c4.92.95,8.63,5.28,8.63,10.48h0s0,.06,0,.09h4.33s0-.06,0-.09h0c0-7.32-5.23-13.41-12.15-14.73"/>
    <path class="st1" d="M27.79,15.09s0,.02,0,.03"/>
    <path class="st2" d="M17.84.27c-.92-.18-1.88-.27-2.85-.27-.71,0-1.42.05-2.1.15,0,0,0,0,0,0v4.39s0,0,0,0h0s0,10.55,0,10.55h4.14V4.52c4.92.95,8.63,5.28,8.63,10.48h0s0,.06,0,.09h4.33s0-.06,0-.09h0c0-7.32-5.23-13.41-12.15-14.73"/>
  </g>
  <path class="st2" d="M96.02,14.77h2v-7.32h2.59v-1.77h-7.19v1.77h2.59v7.32ZM86.25,14.77h6.4v-1.85h-4.4v-1.85h3.94v-1.85h-3.94v-1.69h4.17v-1.85h-6.17v9.09ZM75.71,14.77h2v-6.47h.03l3.97,6.47h2.62V5.68h-2v6.31h-.03l-3.86-6.31h-2.72v9.09ZM69.4,7.38h1.31c.73,0,1.55.14,1.55,1.05,0,.99-.95,1.01-1.68,1.01h-1.18v-2.07ZM67.4,14.77h2v-3.63h.99l1.9,3.63h2.4l-2.31-3.84c1.28-.23,1.96-1.22,1.96-2.49,0-2.12-1.57-2.76-3.43-2.76h-3.52v9.09ZM58.95,10.23c0-1.69,1.12-2.93,2.82-2.93s2.82,1.23,2.82,2.93-1.12,2.93-2.82,2.93-2.82-1.23-2.82-2.93M56.87,10.23c0,2.91,2.07,4.77,4.9,4.77s4.9-1.86,4.9-4.77-2.07-4.77-4.9-4.77-4.9,1.86-4.9,4.77M51.19,14.77h5.71v-1.85h-3.71v-7.24h-2v9.09ZM42.66,10.23c0-1.69,1.12-2.93,2.82-2.93s2.82,1.23,2.82,2.93-1.12,2.93-2.82,2.93-2.82-1.23-2.82-2.93M40.58,10.23c0,2.91,2.07,4.77,4.9,4.77s4.9-1.86,4.9-4.77-2.07-4.77-4.9-4.77-4.9,1.86-4.9,4.77M40.4,6.79c-.77-.99-2.05-1.33-3.07-1.33-2.84,0-4.9,1.86-4.9,4.77s2.07,4.77,4.9,4.77c1.25,0,2.53-.5,3.29-1.58l-1.67-1.25c-.41.62-1.07.98-1.87.98-1.45,0-2.57-1.23-2.57-2.93s1.12-2.93,2.63-2.93c.74,0,1.32.27,1.72.74l1.54-1.26Z"/>
  <g>
    <path class="st2" d="M70.5,18.19c-.77-.68-1.76-.95-2.79-.95-1.78,0-3.47,1.01-3.47,2.95,0,3.03,4.26,2.13,4.26,3.8,0,.64-.73.95-1.39.95s-1.33-.32-1.75-.86l-1.42,1.57c.86.8,1.89,1.14,3.05,1.14,1.87,0,3.5-.96,3.5-2.99,0-3.18-4.18-2.12-4.18-3.77,0-.68.78-.94,1.35-.94.49,0,1.13.19,1.45.6l1.37-1.5Z"/>
    <path class="st2" d="M63.45,18.19c-.77-.68-1.76-.95-2.79-.95-1.78,0-3.47,1.01-3.47,2.95,0,3.03,4.26,2.13,4.26,3.8,0,.64-.73.95-1.39.95s-1.33-.32-1.75-.86l-1.42,1.57c.86.8,1.89,1.14,3.05,1.14,1.87,0,3.5-.96,3.5-2.99,0-3.18-4.18-2.12-4.18-3.77,0-.68.78-.94,1.35-.94.49,0,1.13.19,1.45.6l1.37-1.5Z"/>
    <polygon class="st2" points="49.9 26.56 56.3 26.56 56.3 24.71 51.9 24.71 51.9 22.86 55.84 22.86 55.84 21.02 51.9 21.02 51.9 19.32 56.07 19.32 56.07 17.47 49.9 17.47 49.9 26.56"/>
    <g>
      <path class="st2" d="M46.48,22.72c1.28-.23,1.96-1.22,1.96-2.49,0-2.12-1.57-2.76-3.43-2.76h-3.52v9.09h2v-3.63h.99l1.9,3.63h2.4l-2.31-3.84ZM44.69,21.23h-1.18v-2.07h1.31c.73,0,1.55.14,1.55,1.05,0,.99-.95,1.01-1.68,1.01Z"/>
      <path class="st2" d="M36.79,17.47h-3.38v9.09h2v-3.54h1.46c1.91,0,3.36-.65,3.36-2.79s-1.57-2.76-3.45-2.76ZM36.75,21.32h-1.33v-2.16h1.03c.77,0,1.72.13,1.72,1.07,0,.85-.71,1.09-1.41,1.09Z"/>
    </g>
  </g>
</svg>